<?xml version="1.0" encoding="UTF-8"?>
<svg width="450" height="581.76508" version="1.1" viewBox="0 0 450 581.76508" xml:space="preserve" xmlns="http://www.w3.org/2000/svg"><defs><radialGradient id="radialGradient3339" cx="0" cy="0" r="1" gradientTransform="matrix(5.6508613,0,0,-5.6508613,53.642945,750.09821)" gradientUnits="userSpaceOnUse"><stop stop-color="#fcd605" offset="0"/><stop stop-color="#fcd605" offset=".48295395"/><stop stop-color="#df2c2f" offset=".99115"/><stop stop-color="#df2c2f" offset="1"/></radialGradient></defs><g transform="matrix(1.3333333,0,0,-1.3333333,-48.000667,1570.9096)"><g transform="matrix(13.574934,0,0,13.574934,-452.70391,-9328.8204)"><path d="m36.998 768.889h23.02v-18.487s-8.918-7.799-11.569-7.766c-2.652 0.033-11.495 7.81-11.495 7.81z" fill="#212f5c"/><g fill="#df2c2f"><path d="m37.2647 769.5557s-0.244-4.977-0.2-5.333c5.177 4.311 15.31 5.822 22.731 0.133 0 0 0.133 4.622 0 5.156-7.421 5.199-17.731 3.377-22.531 0.044"/><path d="m45.8416 761.5178 0.6 0.43 2.344-0.43 0.411-0.325-0.511-0.465h-1.814l-0.137-0.641 1.885-0.25-0.551-0.494h-1.492l0.265-0.995-0.584-0.508h-1.198z"/><path d="m49.3415 761.5178 0.5 0.43 0.694-0.43-0.472-3.281-0.353-0.397h-1.283z"/><path d="m51.9765 760.028h0.501c0.054 0 0.163 0.017 0.325 0.05 0.082 0.015 0.155 0.054 0.218 0.115 0.063 0.062 0.103 0.133 0.12 0.213 0.025 0.119 5e-3 0.21-0.061 0.273-0.065 0.063-0.206 0.095-0.422 0.095h-0.522zm-1.662-2.188 0.782 3.678 0.433 0.474 1.551-0.474c0.368 0 0.643-0.03 0.825-0.09 0.181-0.061 0.314-0.172 0.399-0.335 0.084-0.164 0.102-0.362 0.052-0.596-0.043-0.204-0.66-0.223-0.782-0.371-0.123-0.148 0.26-0.425 0.08-0.517-0.114-0.059-0.263-0.107-0.449-0.146 0.133-0.045 0.226-0.09 0.281-0.135 0.038-0.031 0.088-0.095 0.15-0.194s0.101-0.175 0.118-0.228l0.775-0.647-0.424-0.419h-1.346l-0.397 1.124c-0.05 0.145-0.102 0.24-0.155 0.283-0.074 0.057-0.165 0.086-0.274 0.086h-0.105l0.102-1.074-0.334-0.399z"/><path d="m55.1784 761.6589 0.507 0.311 2.684-0.452 0.271-0.303-0.476-0.482h-1.996l-0.154-0.585 2.137-0.289-0.48-0.46h-1.853l-0.189-0.726 2.278-0.391-0.441-0.442h-3.249z"/><path d="m42.9308 763.9032 0.556 0.244 0.688-0.533c-0.154-0.293-0.622-0.804-0.83-1.001-0.207-0.196-0.436-0.344-0.688-0.444-0.253-0.1-0.551-0.15-0.897-0.15-0.419 0-0.744 0.06-0.974 0.182-0.231 0.122-0.399 0.336-0.504 0.643-0.104 0.307-0.088 0.7 0.049 1.178 0.183 0.638 0.493 1.129 0.931 1.471 0.437 0.343 0.967 0.514 1.587 0.514 0.486 0 0.839-0.098 1.061-0.294 0.108-0.096 0.784-0.186 0.865-0.321 0.067-0.111-0.505-0.584-0.505-0.584l-1.12-0.234c-3e-3 0.117-0.017 0.203-0.042 0.257-0.04 0.092-0.101 0.162-0.184 0.211-0.082 0.049-0.183 0.074-0.302 0.074-0.27 0-0.508-0.109-0.713-0.326-0.156-0.161-0.282-0.415-0.381-0.76-0.123-0.427-0.142-0.721-0.058-0.879 0.084-0.159 0.244-0.238 0.478-0.238 0.228 0 0.297 0.106 0.45 0.234s0.41 0.512 0.533 0.756"/><path d="m46.3792 763.5539-0.028 1.387-0.819-1.387zm-0.125-0.833-0.879-0.018-0.156-0.244-0.489-0.378h-1.355l2.533 4 0.644 0.356 1.134-0.112 0.289-3.399-0.134-0.823-1.577 0.023z"/><path d="m48.708 765.9919 0.689 0.422-0.174-3.378 2.107-0.444-0.522-0.506h-3.049z"/></g><path d="m52.88 751.698-2.49 3.003 1.796-3.464-3.497 1.731 3.048-2.435-3.897 0.16 3.775-0.984-3.626-1.44 3.849 0.636-2.726-2.791 3.257 2.148-1.356-3.658 2.102 3.286 0.294-2.998 0.379 3.7 1.252-2.591-0.315 2.16 2.076-0.986-1.492 1.581 2.471-0.341-2.181 1.122 3.847 0.654-3.898 0.179 3.248 2.161-3.633-1.423 2.087 3.297-2.74-2.777 0.566 3.86-1.373-3.652-1.053 3.756z" fill="url(#radialGradient3339)"/><g fill="#fff"><path d="m43.4665 764.1967 0.954-0.316c-0.154-0.293-0.335-0.538-0.542-0.734s-0.437-0.345-0.689-0.445-0.551-0.15-0.896-0.15c-0.419 0-0.744 0.061-0.975 0.183-0.23 0.122-0.398 0.336-0.503 0.643s-0.088 0.699 0.049 1.178c0.183 0.638 0.493 1.128 0.93 1.471 0.438 0.343 0.967 0.514 1.588 0.514 0.485 0 0.839-0.098 1.061-0.295 0.221-0.196 0.341-0.498 0.359-0.905l-1.12-0.234c-3e-3 0.118-0.016 0.204-0.041 0.258-0.041 0.092-0.102 0.161-0.184 0.211-0.082 0.049-0.183 0.073-0.302 0.073-0.27 0-0.508-0.108-0.714-0.325-0.155-0.162-0.282-0.415-0.381-0.76-0.122-0.428-0.142-0.721-0.057-0.879 0.084-0.159 0.243-0.238 0.478-0.238 0.228 0 0.418 0.064 0.571 0.192 0.154 0.128 0.291 0.314 0.414 0.558"/><path d="m46.9126 764.0873-0.028 1.387-0.819-1.387zm8e-3 -0.833h-1.353l-0.369-0.636h-1.217l2.55 3.856h1.302l0.344-3.856h-1.246z"/><path d="m49.3974 766.4741h1.191l-0.832-2.905h1.858l-0.273-0.95h-3.049z"/><path d="m46.4194 761.9844h2.944l-0.168-0.79h-1.746l-0.137-0.641h1.491l-0.157-0.744h-1.492l-0.319-1.503h-1.198z"/><path d="m49.8303 761.9844h1.194l-0.914-3.678h-1.194z"/><path d="m52.3765 760.4945h0.501c0.054 0 0.163 0.017 0.325 0.05 0.082 0.015 0.155 0.054 0.218 0.115 0.063 0.062 0.102 0.133 0.12 0.213 0.025 0.119 5e-3 0.21-0.061 0.273-0.065 0.064-0.206 0.095-0.423 0.095h-0.521zm-1.663-2.188 0.783 3.678h1.984c0.368 0 0.643-0.03 0.825-0.09 0.181-0.061 0.314-0.172 0.399-0.335 0.084-0.163 0.102-0.362 0.052-0.596-0.043-0.204-0.127-0.38-0.249-0.528-0.123-0.148-0.273-0.268-0.453-0.36-0.114-0.059-0.263-0.107-0.449-0.146 0.133-0.045 0.226-0.09 0.281-0.135 0.038-0.031 0.088-0.095 0.15-0.194s0.101-0.175 0.118-0.228l0.351-1.066h-1.347l-0.397 1.124c-0.049 0.145-0.101 0.24-0.154 0.284-0.074 0.056-0.165 0.085-0.274 0.085h-0.105l-0.317-1.493z"/><path d="m55.6673 761.9844h3.191l-0.204-0.784h-1.997l-0.154-0.586h1.853l-0.196-0.749h-1.853l-0.189-0.726h2.055l-0.218-0.833h-3.249z"/></g><path d="m59.7849 764.2229c-6.41 5.155-16.276 5.155-22.842 0" fill="none" stroke="#fac517" stroke-width=".98799998"/><g fill="#fff"><path d="m39.1308 768.2338c-0.033-0.041-0.115-0.118-0.225-0.183-0.344-0.205-0.538-0.036-0.591 0.266-0.07 0.402 0.134 0.759 0.415 0.925 0.108 0.064 0.201 0.089 0.244 0.086-4e-3 -0.09-7e-3 -0.179-0.011-0.269-0.044-4e-3 -0.105-0.017-0.18-0.061-0.145-0.085-0.251-0.265-0.212-0.498 0.035-0.209 0.156-0.276 0.326-0.175 0.06 0.035 0.126 0.09 0.161 0.131 0.024-0.074 0.049-0.148 0.073-0.222"/><path d="m39.6651 769.0323c-0.025 0.061-0.05 0.123-0.075 0.184-0.023 0.058-0.056 0.141-0.08 0.202-1e-3 0-2e-3 0-3e-3 -1e-3 -4e-3 -0.076-4e-3 -0.179-8e-3 -0.252-3e-3 -0.075-6e-3 -0.151-0.01-0.226 0.059 0.031 0.117 0.062 0.176 0.093m-0.175-0.34c-4e-3 -0.099-8e-3 -0.197-0.012-0.296-0.087-0.047-0.173-0.095-0.259-0.143 0.03 0.433 0.062 0.867 0.096 1.301 0.113 0.061 0.227 0.122 0.341 0.181 0.152-0.335 0.303-0.672 0.451-1.011-0.091-0.045-0.183-0.092-0.274-0.139-0.033 0.079-0.066 0.158-0.099 0.236-0.081-0.042-0.163-0.086-0.244-0.129"/><path d="m40.0678 769.9426c0.087 0.042 0.174 0.084 0.261 0.125 0.041-0.3 0.081-0.6 0.121-0.9 0.123 0.058 0.247 0.114 0.371 0.169l0.033-0.261c-0.21-0.093-0.418-0.19-0.625-0.291-0.054 0.386-0.107 0.772-0.161 1.158"/><path d="m41.0996 770.4094l0.141-1.167c-0.087-0.036-0.174-0.074-0.26-0.111-0.049 0.388-0.098 0.777-0.146 1.165 0.088 0.038 0.176 0.076 0.265 0.113"/><path d="m41.282 770.4843c0.213 0.086 0.427 0.169 0.642 0.247 9e-3 -0.086 0.018-0.171 0.027-0.256-0.124-0.046-0.248-0.092-0.372-0.14 8e-3 -0.073 0.016-0.145 0.024-0.217 0.116 0.045 0.233 0.088 0.35 0.131 8e-3 -0.085 0.018-0.169 0.027-0.254-0.117-0.042-0.233-0.086-0.348-0.131 0.017-0.148 0.033-0.296 0.05-0.445-0.088-0.033-0.175-0.068-0.262-0.103-0.046 0.389-0.092 0.778-0.138 1.168"/><path d="m42.3941 770.2853c0.022-0.22 0.117-0.328 0.246-0.286 0.128 0.041 0.19 0.213 0.171 0.425-0.019 0.203-0.111 0.333-0.242 0.29-0.129-0.042-0.196-0.213-0.175-0.429m0.702 0.236c0.033-0.38-0.139-0.677-0.446-0.776-0.307-0.101-0.504 0.111-0.539 0.437-0.036 0.34 0.128 0.683 0.439 0.784 0.327 0.105 0.518-0.13 0.546-0.445"/><path d="m43.5038 770.7051c0.024 6e-3 0.047 0.013 0.071 0.019 0.103 0.027 0.157 0.102 0.15 0.19-6e-3 0.089-0.061 0.126-0.152 0.104-0.051-0.014-0.078-0.025-0.092-0.032 8e-3 -0.094 0.015-0.187 0.023-0.281m-0.312 0.421c0.076 0.036 0.192 0.08 0.329 0.116 0.157 0.042 0.272 0.046 0.355-2e-3 0.07-0.042 0.112-0.117 0.121-0.233 0.011-0.148-0.077-0.277-0.155-0.33 0-3e-3 0-5e-3 1e-3 -7e-3 0.07-0.016 0.112-0.083 0.145-0.179 0.041-0.114 0.086-0.278 0.109-0.319-0.092-0.022-0.185-0.045-0.277-0.069-0.018 0.032-0.05 0.117-0.092 0.255-0.038 0.135-0.078 0.155-0.162 0.133-0.015-4e-3 -0.029-8e-3 -0.044-0.012 0.012-0.148 0.024-0.296 0.036-0.444-0.089-0.024-0.178-0.049-0.266-0.074-0.034 0.388-0.067 0.777-0.1 1.165"/><path d="m44.2141 770.1996c-0.028 0.395-0.055 0.791-0.083 1.186 0.109 0.025 0.218 0.049 0.327 0.073 0.063-0.11 0.125-0.22 0.187-0.331 0.064-0.106 0.133-0.253 0.187-0.384 2e-3 1e-3 3e-3 1e-3 5e-3 2e-3 -0.025 0.153-0.041 0.318-0.052 0.496-5e-3 0.093-0.011 0.187-0.016 0.28 0.085 0.017 0.169 0.033 0.254 0.048 0.022-0.396 0.044-0.792 0.066-1.189-0.096-0.017-0.192-0.036-0.287-0.055-0.066 0.121-0.131 0.24-0.197 0.36-0.066 0.115-0.143 0.259-0.202 0.393-1e-3 0-2e-3 -1e-3 -4e-3 -1e-3 0.017-0.159 0.031-0.338 0.044-0.53 6e-3 -0.097 0.013-0.195 0.019-0.292-0.083-0.018-0.165-0.037-0.248-0.056"/><path d="m45.4967 771.6502c0.019-0.397 0.038-0.794 0.057-1.191-0.092-0.014-0.184-0.029-0.275-0.045-0.021 0.397-0.041 0.793-0.062 1.19 0.093 0.016 0.187 0.031 0.28 0.046"/><path d="m46.22 771.0668c-0.019 0.069-0.037 0.139-0.056 0.208-0.017 0.065-0.041 0.16-0.059 0.229h-3e-3c-0.013-0.073-0.025-0.174-0.038-0.243-0.012-0.072-0.024-0.145-0.036-0.218l0.192 0.024m-0.22-0.266c-0.015-0.094-0.031-0.189-0.047-0.283-0.094-0.013-0.189-0.027-0.284-0.041 0.081 0.412 0.164 0.824 0.25 1.235 0.124 0.016 0.248 0.031 0.373 0.046 0.118-0.386 0.234-0.773 0.348-1.161-0.099-0.01-0.199-0.02-0.298-0.031-0.025 0.089-0.05 0.179-0.075 0.268-0.089-0.01-0.178-0.021-0.267-0.033"/><path d="m47.3474 770.8915c0.014-3e-3 0.04-1e-3 0.058 0 0.18 6e-3 0.311 0.126 0.308 0.396-2e-3 0.232-0.125 0.338-0.294 0.328-0.045-2e-3 -0.071-7e-3 -0.085-0.011 4e-3 -0.238 9e-3 -0.476 0.013-0.713m-0.299 0.921c0.09 0.022 0.21 0.039 0.335 0.046 0.201 0.011 0.328-0.021 0.434-0.099 0.116-0.087 0.192-0.235 0.194-0.454 1e-3 -0.243-0.078-0.403-0.179-0.496-0.112-0.107-0.28-0.16-0.482-0.171-0.133-9e-3 -0.222-4e-3 -0.276 3e-3 -9e-3 0.39-0.018 0.78-0.026 1.171"/><path d="m48.8139 771.1633c-0.125 3e-3 -0.249 3e-3 -0.374 3e-3v-0.219c0.139 0 0.278-2e-3 0.417-5e-3 0-0.087-1e-3 -0.175-1e-3 -0.262-0.231 5e-3 -0.463 5e-3 -0.694 2e-3 -1e-3 0.398-3e-3 0.797-5e-3 1.195 0.228 4e-3 0.456 3e-3 0.685-1e-3 -1e-3 -0.087-1e-3 -0.174-2e-3 -0.261-0.133 2e-3 -0.267 4e-3 -0.4 4e-3v-0.194c0.125 1e-3 0.25-1e-3 0.375-3e-3 0-0.086-1e-3 -0.173-1e-3 -0.259"/><path d="m49.2923 771.3166c0.016-2e-3 0.034-5e-3 0.063-6e-3 0.11-6e-3 0.18 0.054 0.182 0.157 1e-3 0.088-0.051 0.152-0.157 0.157-0.042 2e-3 -0.07 0-0.084-3e-3 -1e-3 -0.102-3e-3 -0.203-4e-3 -0.305m-0.273 0.539c0.077 0.011 0.188 0.019 0.349 0.011 0.152-7e-3 0.259-0.044 0.331-0.113 0.071-0.065 0.117-0.175 0.114-0.297-3e-3 -0.12-0.041-0.224-0.107-0.287-0.087-0.081-0.209-0.111-0.349-0.104-0.027 1e-3 -0.051 4e-3 -0.068 6e-3 -2e-3 -0.135-4e-3 -0.27-6e-3 -0.406-0.091 4e-3 -0.183 8e-3 -0.274 0.011 4e-3 0.393 7e-3 0.786 0.01 1.179"/><path d="m50.3693 771.1014c-0.014 0.073-0.027 0.146-0.042 0.219-0.013 0.069-0.03 0.168-0.043 0.241h-3e-3c-0.018-0.069-0.037-0.167-0.054-0.233-0.017-0.07-0.034-0.139-0.05-0.208 0.064-6e-3 0.128-0.013 0.192-0.019m-0.236-0.215c-0.022-0.091-0.044-0.181-0.066-0.272-0.095 8e-3 -0.191 0.016-0.286 0.023 0.109 0.391 0.219 0.781 0.332 1.17 0.124-0.011 0.249-0.023 0.374-0.036 0.091-0.409 0.18-0.819 0.267-1.229-0.099 0.012-0.198 0.024-0.297 0.035-0.019 0.094-0.038 0.188-0.057 0.283-0.089 9e-3 -0.178 0.018-0.267 0.026"/><path d="m51.1882 771.1634c0.024-3e-3 0.048-7e-3 0.072-0.011 0.105-0.015 0.168 0.035 0.172 0.123 4e-3 0.09-0.044 0.148-0.137 0.164-0.052 8e-3 -0.08 8e-3 -0.094 7e-3 -5e-3 -0.094-9e-3 -0.189-0.013-0.283m-0.255 0.539c0.079 4e-3 0.199-2e-3 0.339-0.023 0.159-0.024 0.273-0.067 0.348-0.148 0.064-0.069 0.096-0.16 0.09-0.277-8e-3 -0.148-0.11-0.237-0.193-0.258v-7e-3c0.067-0.045 0.1-0.127 0.12-0.233 0.026-0.128 0.05-0.307 0.068-0.356-0.094 0.016-0.187 0.032-0.281 0.047-0.014 0.038-0.035 0.134-0.058 0.285-0.021 0.148-0.058 0.184-0.144 0.197-0.014 2e-3 -0.029 4e-3 -0.044 6e-3 -7e-3 -0.149-0.013-0.298-0.02-0.447-0.091 0.013-0.181 0.026-0.273 0.038z"/><path d="m52.0708 771.265c-0.088 0.017-0.176 0.033-0.264 0.049 5e-3 0.089 0.01 0.178 0.014 0.267 0.272-0.049 0.543-0.103 0.813-0.164-6e-3 -0.089-0.012-0.177-0.018-0.266-0.089 0.02-0.178 0.039-0.268 0.058-0.019-0.307-0.038-0.614-0.058-0.921-0.091 0.019-0.182 0.037-0.273 0.055 0.018 0.307 0.036 0.614 0.054 0.922"/><path d="m53.5612 770.4077c8e-3 0.136 0.018 0.294 0.035 0.478-1e-3 1e-3 -3e-3 1e-3 -4e-3 1e-3 -0.045-0.147-0.102-0.312-0.146-0.433-0.045-0.128-0.089-0.257-0.134-0.385-0.07 0.019-0.14 0.037-0.21 0.055-0.018 0.145-0.036 0.289-0.055 0.433-0.016 0.135-0.034 0.318-0.045 0.486h-3e-3c-0.019-0.165-0.038-0.339-0.052-0.473-0.016-0.141-0.031-0.28-0.046-0.42-0.083 0.02-0.167 0.04-0.25 0.059 0.048 0.39 0.097 0.781 0.145 1.171 0.124-0.029 0.248-0.059 0.372-0.091 0.014-0.111 0.029-0.223 0.044-0.335 0.017-0.139 0.035-0.305 0.045-0.454 1e-3 -1e-3 4e-3 -1e-3 6e-3 -2e-3 0.04 0.137 0.086 0.294 0.126 0.411 0.034 0.098 0.068 0.197 0.102 0.295 0.12-0.033 0.241-0.067 0.361-0.102-0.018-0.399-0.035-0.797-0.053-1.196-0.087 0.026-0.174 0.052-0.262 0.076l0.024 0.426"/><path d="m54.6358 770.1264c-0.119 0.041-0.239 0.082-0.359 0.12-7e-3 -0.072-0.014-0.144-0.021-0.216 0.134-0.043 0.267-0.088 0.401-0.135l-0.027-0.258c-0.221 0.077-0.443 0.15-0.667 0.219l0.108 1.179c0.221-0.068 0.44-0.14 0.659-0.216-9e-3 -0.085-0.018-0.171-0.027-0.256-0.127 0.044-0.255 0.088-0.383 0.129-7e-3 -0.063-0.013-0.127-0.019-0.19 0.121-0.04 0.241-0.08 0.361-0.121-9e-3 -0.085-0.017-0.17-0.026-0.255"/><path d="m54.7762 769.5857c0.041 0.391 0.083 0.782 0.124 1.174 0.106-0.038 0.211-0.077 0.317-0.117 0.039-0.14 0.079-0.28 0.118-0.421 0.041-0.137 0.08-0.316 0.108-0.47 2e-3 -1e-3 3e-3 -1e-3 5e-3 -2e-3 3e-3 0.16 0.016 0.325 0.036 0.501 0.011 0.092 0.021 0.184 0.032 0.276l0.243-0.099c-0.047-0.389-0.093-0.778-0.14-1.167-0.091 0.037-0.183 0.074-0.275 0.111-0.04 0.151-0.081 0.302-0.122 0.453-0.041 0.147-0.089 0.328-0.12 0.488-2e-3 1e-3 -3e-3 1e-3 -4e-3 2e-3 -0.012-0.161-0.028-0.339-0.049-0.529-0.011-0.096-0.021-0.192-0.032-0.288-0.08 0.03-0.16 0.059-0.241 0.088"/><path d="m56.1018 770.0067c-0.084 0.037-0.167 0.073-0.251 0.108l0.032 0.261c0.258-0.109 0.515-0.224 0.769-0.345-0.012-0.086-0.023-0.173-0.035-0.259-0.084 0.039-0.168 0.079-0.252 0.117-0.04-0.3-0.079-0.601-0.119-0.901-0.086 0.039-0.172 0.077-0.258 0.115 0.038 0.302 0.076 0.603 0.114 0.904"/><path d="m57.2044 769.1346c-0.032-0.216 0.026-0.389 0.148-0.454 0.121-0.066 0.214 0.04 0.246 0.246 0.031 0.198-0.019 0.389-0.142 0.455-0.122 0.065-0.221-0.035-0.252-0.247m0.662-0.348c-0.06-0.369-0.275-0.499-0.564-0.344-0.29 0.155-0.414 0.504-0.369 0.825 0.047 0.336 0.271 0.513 0.564 0.356 0.308-0.166 0.418-0.531 0.369-0.837"/><path d="m58.0899 769.2707c0.202-0.118 0.402-0.24 0.6-0.365-0.014-0.083-0.029-0.166-0.043-0.249-0.115 0.073-0.23 0.145-0.346 0.215-0.012-0.071-0.024-0.141-0.035-0.212 0.108-0.066 0.217-0.133 0.324-0.201l-0.042-0.246c-0.107 0.068-0.215 0.134-0.324 0.2-0.024-0.145-0.048-0.29-0.071-0.434-0.083 0.05-0.165 0.098-0.248 0.147 0.062 0.382 0.123 0.763 0.185 1.145"/><path d="m37.9963 766.9943c0.198 0.126 0.398 0.248 0.6 0.366 0.014-0.083 0.028-0.167 0.041-0.25-0.116-0.068-0.233-0.138-0.348-0.209 0.011-0.071 0.024-0.141 0.036-0.212 0.108 0.067 0.217 0.132 0.326 0.197 0.014-0.083 0.028-0.166 0.041-0.249-0.108-0.063-0.217-0.128-0.325-0.195 0.025-0.144 0.05-0.289 0.075-0.433-0.082-0.051-0.164-0.102-0.245-0.153-0.067 0.379-0.134 0.759-0.201 1.138"/><path d="m39.0734 767.0038c0.034-0.215 0.131-0.305 0.253-0.24 0.121 0.066 0.171 0.249 0.14 0.456-0.03 0.198-0.127 0.31-0.25 0.244-0.122-0.066-0.177-0.249-0.143-0.46m0.661 0.365c0.055-0.372-0.094-0.7-0.383-0.856-0.29-0.157-0.491 0.017-0.543 0.335-0.055 0.333 0.082 0.705 0.374 0.863 0.309 0.166 0.508-0.033 0.552-0.342"/><path d="m40.1174 767.6273c0.022 0.011 0.045 0.021 0.067 0.032 0.098 0.046 0.146 0.131 0.135 0.217-0.012 0.088-0.067 0.114-0.153 0.075-0.049-0.023-0.075-0.039-0.087-0.049 0.012-0.091 0.025-0.183 0.038-0.275m-0.326 0.362c0.072 0.05 0.181 0.114 0.311 0.176 0.149 0.07 0.26 0.095 0.343 0.063 0.07-0.029 0.116-0.096 0.131-0.21 0.019-0.145-0.059-0.289-0.131-0.357 1e-3 -2e-3 1e-3 -5e-3 1e-3 -7e-3 0.07-3e-3 0.114-0.062 0.152-0.151 0.045-0.105 0.099-0.261 0.123-0.298-0.088-0.039-0.176-0.078-0.264-0.119-0.019 0.028-0.055 0.107-0.103 0.236-0.045 0.128-0.085 0.14-0.165 0.103-0.013-7e-3 -0.027-0.013-0.041-0.02l0.06-0.435-0.252-0.123c-0.055 0.38-0.11 0.761-0.165 1.142"/><path d="m41.3885 767.9795c-0.118-0.046-0.236-0.094-0.353-0.143 9e-3 -0.072 0.018-0.143 0.027-0.215 0.13 0.055 0.262 0.108 0.393 0.159 0.01-0.085 0.02-0.171 0.03-0.257-0.218-0.085-0.436-0.175-0.652-0.269-0.05 0.389-0.099 0.777-0.149 1.166 0.213 0.092 0.428 0.181 0.644 0.266l0.03-0.255c-0.126-0.05-0.252-0.101-0.377-0.153 7e-3 -0.063 0.015-0.126 0.023-0.189 0.118 0.049 0.236 0.097 0.354 0.144 0.01-0.085 0.02-0.169 0.03-0.254"/><path d="m41.6131 767.8994c0.064-0.014 0.166-0.013 0.265 0.022 0.091 0.034 0.131 0.086 0.125 0.145-7e-3 0.057-0.054 0.075-0.171 0.08-0.176 8e-3 -0.298 0.075-0.318 0.249-0.024 0.206 0.105 0.424 0.36 0.515 0.12 0.044 0.208 0.047 0.28 0.035-0.011-0.09-0.021-0.181-0.031-0.271-0.046 8e-3 -0.124 0.015-0.225-0.021-0.082-0.029-0.122-0.08-0.116-0.133 6e-3 -0.059 0.062-0.064 0.194-0.074 0.187-0.014 0.281-0.1 0.297-0.264 0.021-0.203-0.095-0.421-0.383-0.526-0.118-0.043-0.238-0.049-0.297-0.035 7e-3 0.093 0.013 0.185 0.02 0.278"/><path d="m42.5579 768.8497c-0.086-0.027-0.172-0.055-0.257-0.084-0.01 0.088-0.018 0.176-0.027 0.264 0.264 0.088 0.53 0.17 0.796 0.247l0.024-0.265c-0.088-0.025-0.176-0.051-0.264-0.077 0.028-0.306 0.056-0.611 0.084-0.917-0.089-0.027-0.179-0.054-0.268-0.083-0.029 0.305-0.059 0.61-0.088 0.915"/><path d="m43.51 768.8735c0.024 6e-3 0.047 0.012 0.071 0.019 0.103 0.026 0.158 0.101 0.151 0.189-7e-3 0.089-0.061 0.126-0.153 0.104-0.051-0.013-0.078-0.024-0.092-0.031 8e-3 -0.094 0.016-0.187 0.023-0.281m-0.312 0.423c0.076 0.036 0.192 0.079 0.329 0.114 0.157 0.041 0.272 0.045 0.355-4e-3 0.07-0.042 0.113-0.118 0.121-0.234 0.011-0.148-0.077-0.276-0.154-0.329v-7e-3c0.071-0.017 0.113-0.084 0.146-0.18 0.041-0.114 0.086-0.279 0.109-0.32-0.093-0.021-0.185-0.044-0.278-0.067-0.018 0.032-0.05 0.117-0.091 0.255-0.038 0.135-0.079 0.156-0.163 0.134-0.015-4e-3 -0.029-8e-3 -0.044-0.012 0.012-0.148 0.024-0.296 0.036-0.444-0.089-0.024-0.178-0.048-0.267-0.073-0.033 0.389-0.066 0.778-0.099 1.167"/><path d="m44.4257 768.4089c-0.011 0.16-0.021 0.319-0.032 0.479-0.123 0.214-0.248 0.425-0.374 0.636 0.106 0.024 0.212 0.048 0.318 0.071 0.035-0.083 0.07-0.166 0.105-0.249 0.034-0.077 0.057-0.133 0.085-0.204 1e-3 0 2e-3 0 3e-3 1e-3 0.015 0.076 0.032 0.146 0.051 0.232 0.023 0.095 0.046 0.19 0.07 0.285 0.104 0.021 0.208 0.041 0.313 0.06-0.101-0.254-0.2-0.508-0.298-0.762 0.01-0.164 0.02-0.328 0.031-0.492-0.091-0.019-0.182-0.037-0.272-0.057"/><path d="m45.7849 769.6746c-0.05-7e-3 -0.075-0.061-0.073-0.11 2e-3 -0.05 0.024-0.094 0.075-0.145 0.059 0.064 0.083 0.108 0.081 0.163-2e-3 0.048-0.03 0.099-0.082 0.092h-1e-3m0.01-0.811c0.048 7e-3 0.087 0.03 0.109 0.054-0.069 0.062-0.143 0.146-0.22 0.228-0.033-0.039-0.054-0.084-0.052-0.141 4e-3 -0.087 0.064-0.154 0.162-0.141h1e-3m0.301-0.172c-0.02 0.021-0.04 0.041-0.058 0.066-0.056-0.055-0.146-0.111-0.271-0.129-0.269-0.039-0.384 0.119-0.392 0.282-8e-3 0.156 0.061 0.281 0.178 0.37v6e-3c-0.044 0.043-0.084 0.124-0.088 0.211-8e-3 0.154 0.094 0.342 0.321 0.373 0.174 0.024 0.31-0.073 0.317-0.251 5e-3 -0.118-0.053-0.23-0.184-0.327 0-3e-3 -1e-3 -5e-3 -1e-3 -8e-3 0.048-0.052 0.1-0.115 0.145-0.157 0.037 0.076 0.064 0.187 0.073 0.276 0.082 0.01 0.165 0.019 0.247 0.028-0.022-0.182-0.072-0.344-0.165-0.479 0.062-0.075 0.128-0.151 0.195-0.224-0.106-0.011-0.212-0.023-0.317-0.037"/><path d="m46.7904 769.9634c0.225 0.019 0.45 0.035 0.676 0.046 1e-3 -0.087 3e-3 -0.174 4e-3 -0.261-0.131-6e-3 -0.261-0.014-0.392-0.024 2e-3 -0.073 4e-3 -0.147 5e-3 -0.221 0.123 8e-3 0.245 0.016 0.367 0.023 2e-3 -0.087 3e-3 -0.173 4e-3 -0.26-0.121-6e-3 -0.243-0.014-0.365-0.022l0.01-0.455c-0.092-6e-3 -0.185-0.013-0.277-0.021-0.011 0.398-0.021 0.797-0.032 1.195"/><path d="m47.9241 770.0276c3e-3 -0.399 7e-3 -0.798 0.01-1.196-0.092-3e-3 -0.185-6e-3 -0.277-0.01-6e-3 0.399-0.011 0.797-0.016 1.196 0.094 4e-3 0.189 8e-3 0.283 0.01"/><path d="m48.3985 769.5164h0.073c0.105 0 0.166 0.06 0.166 0.148 0 0.091-0.051 0.141-0.144 0.143-0.053 0-0.081-3e-3 -0.095-7e-3zm-0.28 0.5c0.079 0.015 0.2 0.027 0.34 0.027 0.161 0 0.277-0.026 0.357-0.095 0.066-0.06 0.103-0.146 0.102-0.263-1e-3 -0.149-0.099-0.253-0.182-0.286v-7e-3c0.07-0.035 0.106-0.112 0.132-0.216 0.032-0.123 0.064-0.298 0.084-0.344-0.095 2e-3 -0.189 4e-3 -0.284 5e-3 -0.015 0.036-0.041 0.128-0.071 0.276-0.028 0.144-0.067 0.174-0.153 0.174h-0.045c0-0.15 0-0.299 1e-3 -0.449-0.092 0-0.183-1e-3 -0.275-3e-3 -2e-3 0.393-4e-3 0.787-6e-3 1.181"/><path d="m49.729 769.2797c-0.125 8e-3 -0.249 0.015-0.374 0.021l-3e-3 -0.22c0.139-7e-3 0.278-0.014 0.417-0.024-2e-3 -0.087-4e-3 -0.175-6e-3 -0.262-0.23 0.015-0.461 0.027-0.692 0.034 4e-3 0.399 8e-3 0.798 0.012 1.196 0.228-7e-3 0.456-0.018 0.684-0.033l-6e-3 -0.261c-0.133 9e-3 -0.266 0.016-0.399 0.023-1e-3 -0.065-2e-3 -0.129-3e-3 -0.194 0.125-6e-3 0.25-0.013 0.375-0.021-2e-3 -0.086-3e-3 -0.173-5e-3 -0.259"/><path d="m50.5143 769.3811c0.016-3e-3 0.034-7e-3 0.063-0.01 0.11-0.012 0.18 0.043 0.184 0.146 3e-3 0.088-0.047 0.155-0.153 0.167-0.042 5e-3 -0.07 4e-3 -0.084 2e-3 -3e-3 -0.102-7e-3 -0.203-0.01-0.305m-0.261 0.556c0.076 7e-3 0.187 7e-3 0.348-0.01 0.151-0.017 0.257-0.061 0.327-0.134 0.07-0.069 0.113-0.181 0.108-0.304-5e-3 -0.12-0.045-0.222-0.112-0.281-0.088-0.076-0.211-0.098-0.35-0.082-0.027 2e-3 -0.051 7e-3 -0.068 0.01-5e-3 -0.135-9e-3 -0.27-0.013-0.405-0.092 9e-3 -0.183 0.018-0.274 0.027z"/><path d="m51.4427 769.2863c0.024-4e-3 0.048-7e-3 0.072-0.011 0.104-0.017 0.167 0.033 0.172 0.121 5e-3 0.091-0.043 0.149-0.136 0.165-0.052 9e-3 -0.081 9e-3 -0.094 8e-3 -5e-3 -0.094-9e-3 -0.189-0.014-0.283m-0.253 0.542c0.079 3e-3 0.199-4e-3 0.339-0.026 0.159-0.026 0.272-0.07 0.347-0.151 0.064-0.071 0.096-0.162 0.089-0.279-9e-3 -0.148-0.111-0.236-0.194-0.256v-7e-3c0.067-0.045 0.099-0.128 0.12-0.235 0.025-0.128 0.048-0.307 0.065-0.357-0.093 0.018-0.187 0.034-0.28 0.05-0.013 0.038-0.034 0.134-0.057 0.286-0.02 0.148-0.057 0.184-0.143 0.198l-0.044 7e-3c-7e-3 -0.149-0.015-0.298-0.022-0.447-0.091 0.014-0.181 0.027-0.272 0.04z"/><path d="m52.3456 769.0417c-0.014-0.222 0.061-0.377 0.192-0.405 0.132-0.029 0.219 0.103 0.234 0.316 0.015 0.205-0.054 0.378-0.187 0.407-0.132 0.028-0.225-0.099-0.239-0.318m0.716-0.146c-0.029-0.382-0.241-0.576-0.554-0.508-0.314 0.067-0.473 0.376-0.454 0.706 0.02 0.346 0.235 0.586 0.553 0.517 0.333-0.073 0.48-0.4 0.455-0.715"/><path d="m53.3867 769.1339c-0.087 0.023-0.174 0.045-0.261 0.066l0.02 0.266c0.269-0.066 0.537-0.138 0.803-0.216-8e-3 -0.089-0.015-0.177-0.023-0.265-0.088 0.025-0.176 0.051-0.265 0.075-0.025-0.306-0.051-0.612-0.077-0.918-0.09 0.025-0.18 0.049-0.271 0.073 0.025 0.307 0.049 0.613 0.074 0.919"/><path d="m54.6401 768.3073c-0.12 0.041-0.239 0.08-0.359 0.118-7e-3 -0.073-0.015-0.145-0.021-0.217 0.134-0.043 0.268-0.087 0.401-0.132-9e-3 -0.086-0.018-0.172-0.026-0.258-0.222 0.075-0.444 0.146-0.668 0.213 0.036 0.394 0.071 0.787 0.107 1.181 0.221-0.066 0.441-0.136 0.66-0.211-9e-3 -0.085-0.017-0.171-0.026-0.256-0.128 0.043-0.256 0.085-0.385 0.126-6e-3 -0.064-0.012-0.127-0.018-0.191 0.121-0.038 0.241-0.078 0.361-0.118-9e-3 -0.085-0.017-0.17-0.026-0.255"/><path d="m55.5215 767.5223c-0.041-6e-3 -0.135 2e-3 -0.253 0.047-0.366 0.139-0.501 0.468-0.469 0.781 0.043 0.415 0.326 0.537 0.624 0.423 0.116-0.044 0.206-0.107 0.245-0.15-0.027-0.075-0.054-0.151-0.081-0.226-0.042 0.038-0.1 0.083-0.179 0.113-0.154 0.059-0.3 1e-3 -0.326-0.239-0.023-0.214 0.07-0.385 0.251-0.454 0.064-0.025 0.138-0.037 0.181-0.034 2e-3 -0.087 5e-3 -0.174 7e-3 -0.261"/><path d="m55.9713 768.2598c-0.084 0.035-0.168 0.07-0.252 0.104 0.01 0.087 0.021 0.174 0.031 0.261 0.26-0.104 0.518-0.214 0.774-0.33l-0.035-0.261c-0.084 0.039-0.169 0.076-0.254 0.113-0.039-0.301-0.077-0.603-0.116-0.904-0.086 0.038-0.173 0.075-0.26 0.111z"/><path d="m56.9069 768.116c-0.054-0.387-0.108-0.773-0.162-1.16-0.086 0.041-0.171 0.082-0.257 0.121l0.157 1.162c0.088-0.04 0.175-0.081 0.262-0.123"/><path d="m57.2341 767.3324c-0.032-0.216 0.026-0.389 0.148-0.453s0.216 0.043 0.248 0.249c0.03 0.199-0.02 0.389-0.143 0.454-0.123 0.064-0.222-0.037-0.253-0.25m0.665-0.34c-0.06-0.37-0.276-0.503-0.566-0.351-0.292 0.152-0.416 0.5-0.371 0.821 0.047 0.337 0.272 0.516 0.566 0.362 0.309-0.163 0.42-0.526 0.371-0.832"/><path d="m57.9381 766.3314c0.062 0.382 0.124 0.765 0.185 1.148 0.1-0.057 0.199-0.115 0.298-0.174 0.03-0.146 0.06-0.293 0.089-0.44 0.032-0.144 0.06-0.329 0.077-0.488l5e-3 -3e-3c0.012 0.159 0.034 0.322 0.063 0.493 0.016 0.09 0.031 0.179 0.047 0.269 0.076-0.047 0.151-0.094 0.227-0.142-0.067-0.38-0.134-0.759-0.201-1.138-0.085 0.054-0.171 0.107-0.257 0.16-0.03 0.158-0.06 0.316-0.091 0.474-0.031 0.153-0.066 0.342-0.088 0.508-1e-3 0-3e-3 1e-3 -4e-3 2e-3 -0.02-0.158-0.046-0.333-0.077-0.518-0.015-0.094-0.031-0.188-0.046-0.282-0.076 0.044-0.151 0.088-0.227 0.131"/></g><path d="m57.641 757.015h-12.688v0.355h12.688z" fill="#df2c2f"/><path d="m58.1073 748.817c-6.459 3.141-14.399 2.844-19.435-0.356 0 0 7.939-6.73 9.539-6.446s9.896 6.802 9.896 6.802" fill="#df2c2f"/><path d="m38.7904 748.402c5.037 3.2 12.976 3.496 19.435 0.356" fill="none" stroke="#fac517" stroke-width=".98799998"/><path d="m38.5215 761.6977 5.663-0.013-6e-3 -5.475 8.031-7.041s-0.018-0.167 0.038-0.24c0.055-0.075 0.222-0.185 0.222-0.241s0.093-0.37 0.148-0.407c0.056-0.036 0.427-0.258 0.39-0.332-0.037-0.075-0.445-0.315-0.427-0.389 0.019-0.073-0.055-0.147-0.074-0.258-0.018-0.111 0.093-0.462 0.019-0.535-0.074-0.075-0.019-0.204-0.112-0.26-0.092-0.055-0.185-0.147-0.166-0.203s0.092-0.203 0.055-0.277c-0.036-0.074-0.093-0.277 0.019-0.296 0.111-0.018-0.509-0.115-0.49-0.207 0.018-0.093-0.364-0.278-0.643-0.371-0.278-0.092-2.595-0.549-2.595-0.549s0.093 0.259-0.167 0.277c0 0 0.074 0.277-0.112 0.61-0.185 0.333-0.519 0.813-1.168 1.183-0.649 0.369-0.167 0.055-0.315 0.037-0.149-0.019-0.26 0-0.26 0.056 0 0.054 0.111 0.332-0.13 0.48-0.241 0.147-0.149-0.056-0.445 0-0.296 0.055-0.52-0.038-0.724 0.407 0 0-0.259 0.424-1.724 0.314 0 0-0.131 0.221-0.297 0.202 0 0 0.112 0.204 0.092 0.26-0.018 0.055-0.111 0.147-0.111 0.147l-0.018 0.24s0.092 0.333 0.037 0.407c-0.056 0.074-0.112 0.018-0.204 0.074-0.093 0.055-0.149 0.11-0.149 0.166s0.186 0.129 0.019 0.24-0.186 0.148-0.242 0.166c-0.055 0.02-0.073 0.222-0.24 0.259s-0.205 0.204-0.242 0.278c-0.037 0.073-0.167 0.406-0.37 0.461 0 0 0.037 0.167-0.242 0.334-0.278 0.166-0.185 0.461-0.185 0.572s-0.056 0.258 0.018 0.222c0.075-0.037 0.167-0.074 0.186 0.092 0.018 0.167-0.056 0.444-0.241 0.462-0.186 0.019-0.093-0.129-0.167-0.092-0.075 0.037-0.501 0.499-0.483 0.591 0.019 0.093 0.038 0.185 0 0.24-0.036 0.056 0.019 0.278-0.092 0.223 0 0-0.149 0.553 0.148 0.553 0 0 0.093 0 0.056-0.351 0 0 0.111-0.074 0.167-0.128 0.055-0.057 0.167-0.204 0.315-0.167 0 0-0.074 0.074-0.13 0.11-0.056 0.038 0.056 0.149-0.037 0.259-0.093 0.111-0.148 0.185-0.148 0.185v0.074l-0.149 0.056s0.167 0.148 0.019 0.203c-0.149 0.055-0.074 0.147 0 0.147s0.167 0 0.167 0.056-0.093 0.185-0.186 0.185c-0.092 0-0.204-0.055-0.185-0.111s-0.074-0.13 0-0.203c0.074-0.074 0.13-0.203 0.037-0.203s-0.111-0.093-0.186 0c-0.074 0.092-0.185 0.092-0.185 0.092s-0.234 0.305-0.26 0.203c-0.019-0.074-0.148-0.074-0.148-0.074s0.11 0.253 0.019 0.573c-0.075 0.259-0.13 0.203-0.39 0.536-0.169 0.217-0.631 0.573-0.593 0.647 0.036 0.074 0.055 0.24 0.036 0.314-0.018 0.074-0.185 0.407-0.129 0.499 0.055 0.092 0.111 0.48 0.037 0.647-0.075 0.166-0.353 0.665-0.742 1.034 0 0 0.018 0.075 0 0.222-0.019 0.149 0.445 0.924 0.408 1.072s-0.056 0.185 0.019 0.314c0.074 0.129 0.129 0.813-0.056 0.999-0.185 0.184-0.075 0.073-0.037 0.203 0.037 0.129 0.037 0.24 0.037 0.24" fill="#fac517"/><path d="m45.818 755.7824c0.01-0.058 0.029-0.102 0.058-0.131 0.053-0.052 0.144-0.079 0.273-0.079 0.077 0 0.14 7e-3 0.188 0.021 0.091 0.027 0.136 0.076 0.136 0.148 0 0.043-0.022 0.075-0.066 0.098-0.045 0.023-0.116 0.043-0.213 0.06l-0.166 0.031c-0.163 0.029-0.275 0.062-0.337 0.097-0.103 0.059-0.155 0.151-0.155 0.277 0 0.114 0.051 0.209 0.152 0.285s0.25 0.114 0.446 0.114c0.163 0 0.303-0.036 0.419-0.107 0.115-0.072 0.176-0.175 0.182-0.311h-0.309c-5e-3 0.077-0.047 0.131-0.124 0.164-0.051 0.021-0.114 0.031-0.19 0.031-0.085 0-0.152-0.013-0.203-0.041-0.05-0.028-0.076-0.066-0.076-0.116 0-0.046 0.025-0.08 0.075-0.103 0.032-0.014 0.1-0.032 0.204-0.052l0.269-0.053c0.117-0.023 0.206-0.054 0.265-0.093 0.091-0.06 0.137-0.147 0.137-0.261 0-0.117-0.054-0.214-0.162-0.291-0.109-0.077-0.262-0.116-0.46-0.116-0.202 0-0.361 0.038-0.476 0.115-0.116 0.075-0.174 0.18-0.174 0.313z" fill="#fff"/><path d="m45.818 755.7824c0.01-0.058 0.029-0.102 0.058-0.131 0.053-0.052 0.144-0.079 0.273-0.079 0.077 0 0.14 7e-3 0.188 0.021 0.091 0.027 0.136 0.076 0.136 0.148 0 0.043-0.022 0.075-0.066 0.098-0.045 0.023-0.116 0.043-0.213 0.06l-0.166 0.031c-0.163 0.029-0.275 0.062-0.337 0.097-0.103 0.059-0.155 0.151-0.155 0.277 0 0.114 0.051 0.209 0.152 0.285s0.25 0.114 0.446 0.114c0.163 0 0.303-0.036 0.419-0.107 0.115-0.072 0.176-0.175 0.182-0.311h-0.309c-5e-3 0.077-0.047 0.131-0.124 0.164-0.051 0.021-0.114 0.031-0.19 0.031-0.085 0-0.152-0.013-0.203-0.041-0.05-0.028-0.076-0.066-0.076-0.116 0-0.046 0.025-0.08 0.075-0.103 0.032-0.014 0.1-0.032 0.204-0.052l0.269-0.053c0.117-0.023 0.206-0.054 0.265-0.093 0.091-0.06 0.137-0.147 0.137-0.261 0-0.117-0.054-0.214-0.162-0.291-0.109-0.077-0.262-0.116-0.46-0.116-0.202 0-0.361 0.038-0.476 0.115-0.116 0.075-0.174 0.18-0.174 0.313z" fill="none" stroke="#fff" stroke-width=".124"/><path d="m47.302 755.387h-0.319v1.281h0.319z" fill="#fff"/><path d="m47.3018 755.3865h-0.319v1.281h0.319z" fill="none" stroke="#fff" stroke-width=".124"/><path d="m47.596 756.6672h0.336l0.611-0.892v0.892h0.299v-1.281h-0.321l-0.627 0.91v-0.91h-0.298z" fill="#fff"/><path d="m47.596 756.6672h0.336l0.611-0.892v0.892h0.299v-1.281h-0.321l-0.627 0.91v-0.91h-0.298z" fill="none" stroke="#fff" stroke-width=".124"/><path d="m49.2887 756.5325c0.124 0.106 0.281 0.158 0.472 0.158 0.256 0 0.443-0.071 0.561-0.212 0.065-0.08 0.1-0.159 0.105-0.24h-0.321c-0.02 0.063-0.047 0.11-0.079 0.142-0.057 0.055-0.142 0.084-0.254 0.084-0.114 0-0.205-0.04-0.271-0.118-0.066-0.079-0.099-0.19-0.099-0.334s0.035-0.252 0.105-0.324c0.069-0.072 0.158-0.108 0.265-0.108 0.11 0 0.194 0.031 0.252 0.093 0.032 0.032 0.059 0.082 0.08 0.148h0.319c-0.027-0.14-0.098-0.253-0.211-0.34s-0.258-0.131-0.435-0.131c-0.218 0-0.39 0.059-0.515 0.177-0.125 0.119-0.187 0.282-0.187 0.488 0 0.223 0.071 0.396 0.213 0.517" fill="#fff"/><path d="m49.2887 756.5325c0.124 0.106 0.281 0.158 0.472 0.158 0.256 0 0.443-0.071 0.561-0.212 0.065-0.08 0.1-0.159 0.105-0.24h-0.321c-0.02 0.063-0.047 0.11-0.079 0.142-0.057 0.055-0.142 0.084-0.254 0.084-0.114 0-0.205-0.04-0.271-0.118-0.066-0.079-0.099-0.19-0.099-0.334s0.035-0.252 0.105-0.324c0.069-0.072 0.158-0.108 0.265-0.108 0.11 0 0.194 0.031 0.252 0.093 0.032 0.032 0.059 0.082 0.08 0.148h0.319c-0.027-0.14-0.098-0.253-0.211-0.34s-0.258-0.131-0.435-0.131c-0.218 0-0.39 0.059-0.515 0.177-0.125 0.119-0.187 0.282-0.187 0.488 0 0.223 0.071 0.396 0.213 0.517z" fill="none" stroke="#fff" stroke-width=".124"/><path d="m51.8184 756.4394h-0.812v-0.271h0.745v-0.222h-0.745v-0.329h0.849v-0.231h-1.163v1.279h1.126z" fill="#fff"/><path d="m51.8184 756.4394h-0.812v-0.271h0.745v-0.222h-0.745v-0.329h0.849v-0.231h-1.163v1.279h1.126z" fill="none" stroke="#fff" stroke-width=".124"/><path d="m52.6827 756.2546v0.168c0.094 4e-3 0.159 9e-3 0.197 0.016 0.059 0.011 0.108 0.033 0.146 0.066 0.025 0.022 0.045 0.052 0.058 0.09 7e-3 0.022 0.011 0.039 0.011 0.05h0.248v-1.258h-0.305v0.868z" fill="#fff"/><path d="m52.6827 756.2546v0.168c0.094 4e-3 0.159 9e-3 0.197 0.016 0.059 0.011 0.108 0.033 0.146 0.066 0.025 0.022 0.045 0.052 0.058 0.09 7e-3 0.022 0.011 0.039 0.011 0.05h0.248v-1.258h-0.305v0.868z" fill="none" stroke="#fff" stroke-width=".124"/><path d="m54.1626 756.1813c0.034-0.029 0.081-0.044 0.141-0.044s0.107 0.015 0.141 0.044c0.033 0.028 0.049 0.066 0.049 0.111 0 0.05-0.016 0.088-0.049 0.116-0.034 0.028-0.081 0.042-0.141 0.042s-0.107-0.014-0.141-0.042-0.051-0.066-0.051-0.116c0-0.045 0.017-0.083 0.051-0.111m-0.019-0.574c0.038-0.034 0.092-0.051 0.16-0.051s0.122 0.017 0.16 0.051c0.039 0.034 0.058 0.083 0.058 0.145 0 0.064-0.02 0.113-0.059 0.147-0.039 0.033-0.092 0.05-0.159 0.05s-0.12-0.017-0.159-0.05c-0.039-0.034-0.059-0.083-0.059-0.147 0-0.062 0.019-0.111 0.058-0.145m-0.308 0.321c0.038 0.057 0.094 0.1 0.167 0.129-0.073 0.04-0.12 0.084-0.143 0.132-0.021 0.047-0.032 0.091-0.032 0.132 0 0.091 0.041 0.169 0.124 0.234 0.083 0.064 0.2 0.096 0.351 0.096 0.152 0 0.268-0.032 0.351-0.096 0.083-0.065 0.125-0.143 0.125-0.234 0-0.042-0.011-0.085-0.033-0.133-0.022-0.047-0.069-0.088-0.142-0.123 0.074-0.034 0.13-0.08 0.168-0.137 0.038-0.058 0.057-0.122 0.057-0.192 0-0.106-0.047-0.196-0.141-0.27-0.095-0.074-0.226-0.112-0.395-0.112s-0.297 0.038-0.383 0.112c-0.088 0.074-0.131 0.164-0.131 0.27 0 0.071 0.019 0.135 0.057 0.192" fill="#fff"/><path d="m54.1626 756.1813c0.034-0.029 0.081-0.044 0.141-0.044s0.107 0.015 0.141 0.044c0.033 0.028 0.049 0.066 0.049 0.111 0 0.05-0.016 0.088-0.049 0.116-0.034 0.028-0.081 0.042-0.141 0.042s-0.107-0.014-0.141-0.042-0.051-0.066-0.051-0.116c0-0.045 0.017-0.083 0.051-0.111zm-0.019-0.574c0.038-0.034 0.092-0.051 0.16-0.051s0.122 0.017 0.16 0.051c0.039 0.034 0.058 0.083 0.058 0.145 0 0.064-0.02 0.113-0.059 0.147-0.039 0.033-0.092 0.05-0.159 0.05s-0.12-0.017-0.159-0.05c-0.039-0.034-0.059-0.083-0.059-0.147 0-0.062 0.019-0.111 0.058-0.145zm-0.308 0.321c0.038 0.057 0.094 0.1 0.167 0.129-0.073 0.04-0.12 0.084-0.143 0.132-0.021 0.047-0.032 0.091-0.032 0.132 0 0.091 0.041 0.169 0.124 0.234 0.083 0.064 0.2 0.096 0.351 0.096 0.152 0 0.268-0.032 0.351-0.096 0.083-0.065 0.125-0.143 0.125-0.234 0-0.042-0.011-0.085-0.033-0.133-0.022-0.047-0.069-0.088-0.142-0.123 0.074-0.034 0.13-0.08 0.168-0.137 0.038-0.058 0.057-0.122 0.057-0.192 0-0.106-0.047-0.196-0.141-0.27-0.095-0.074-0.226-0.112-0.395-0.112s-0.297 0.038-0.383 0.112c-0.088 0.074-0.131 0.164-0.131 0.27 0 0.071 0.019 0.135 0.057 0.192z" fill="none" stroke="#fff" stroke-width=".124"/><path d="m55.349 756.1813c0.034-0.029 0.081-0.044 0.141-0.044s0.107 0.015 0.141 0.044c0.033 0.028 0.049 0.066 0.049 0.111 0 0.05-0.016 0.088-0.049 0.116-0.034 0.028-0.081 0.042-0.141 0.042s-0.107-0.014-0.141-0.042-0.051-0.066-0.051-0.116c0-0.045 0.017-0.083 0.051-0.111m-0.019-0.574c0.038-0.034 0.092-0.051 0.16-0.051s0.122 0.017 0.16 0.051c0.039 0.034 0.058 0.083 0.058 0.145 0 0.064-0.02 0.113-0.059 0.147-0.039 0.033-0.092 0.05-0.159 0.05s-0.12-0.017-0.159-0.05c-0.039-0.034-0.059-0.083-0.059-0.147 0-0.062 0.019-0.111 0.058-0.145m-0.308 0.321c0.038 0.057 0.094 0.1 0.167 0.129-0.073 0.04-0.12 0.084-0.143 0.132-0.021 0.047-0.032 0.091-0.032 0.132 0 0.091 0.041 0.169 0.124 0.234 0.083 0.064 0.2 0.096 0.351 0.096 0.152 0 0.268-0.032 0.351-0.096 0.083-0.065 0.125-0.143 0.125-0.234 0-0.042-0.011-0.085-0.033-0.133-0.022-0.047-0.069-0.088-0.142-0.123 0.074-0.034 0.13-0.08 0.168-0.137 0.038-0.058 0.057-0.122 0.057-0.192 0-0.106-0.047-0.196-0.141-0.27-0.095-0.074-0.226-0.112-0.395-0.112s-0.297 0.038-0.383 0.112c-0.088 0.074-0.131 0.164-0.131 0.27 0 0.071 0.019 0.135 0.057 0.192" fill="#fff"/><path d="m55.349 756.1813c0.034-0.029 0.081-0.044 0.141-0.044s0.107 0.015 0.141 0.044c0.033 0.028 0.049 0.066 0.049 0.111 0 0.05-0.016 0.088-0.049 0.116-0.034 0.028-0.081 0.042-0.141 0.042s-0.107-0.014-0.141-0.042-0.051-0.066-0.051-0.116c0-0.045 0.017-0.083 0.051-0.111zm-0.019-0.574c0.038-0.034 0.092-0.051 0.16-0.051s0.122 0.017 0.16 0.051c0.039 0.034 0.058 0.083 0.058 0.145 0 0.064-0.02 0.113-0.059 0.147-0.039 0.033-0.092 0.05-0.159 0.05s-0.12-0.017-0.159-0.05c-0.039-0.034-0.059-0.083-0.059-0.147 0-0.062 0.019-0.111 0.058-0.145zm-0.308 0.321c0.038 0.057 0.094 0.1 0.167 0.129-0.073 0.04-0.12 0.084-0.143 0.132-0.021 0.047-0.032 0.091-0.032 0.132 0 0.091 0.041 0.169 0.124 0.234 0.083 0.064 0.2 0.096 0.351 0.096 0.152 0 0.268-0.032 0.351-0.096 0.083-0.065 0.125-0.143 0.125-0.234 0-0.042-0.011-0.085-0.033-0.133-0.022-0.047-0.069-0.088-0.142-0.123 0.074-0.034 0.13-0.08 0.168-0.137 0.038-0.058 0.057-0.122 0.057-0.192 0-0.106-0.047-0.196-0.141-0.27-0.095-0.074-0.226-0.112-0.395-0.112s-0.297 0.038-0.383 0.112c-0.088 0.074-0.131 0.164-0.131 0.27 0 0.071 0.019 0.135 0.057 0.192z" fill="none" stroke="#fff" stroke-width=".124"/><path d="m56.4471 755.7243c0.012-0.054 0.035-0.095 0.068-0.125 0.033-0.029 0.081-0.043 0.145-0.043 0.074 0 0.13 0.021 0.168 0.064 0.039 0.043 0.058 0.097 0.058 0.163 0 0.063-0.018 0.118-0.054 0.162s-0.092 0.066-0.169 0.066c-0.036 0-0.067-3e-3 -0.093-0.011-0.047-0.014-0.082-0.04-0.105-0.078l-0.267 0.011 0.107 0.695h0.831v-0.21h-0.617l-0.054-0.275c0.046 0.025 0.081 0.042 0.107 0.049 0.043 0.014 0.095 0.021 0.157 0.021 0.125 0 0.234-0.035 0.327-0.105s0.14-0.172 0.14-0.305c0-0.117-0.045-0.22-0.135-0.312-0.089-0.091-0.223-0.137-0.402-0.137-0.144 0-0.261 0.032-0.354 0.097-0.092 0.064-0.143 0.155-0.154 0.273z" fill="#fff"/><path d="m56.4471 755.7243c0.012-0.054 0.035-0.095 0.068-0.125 0.033-0.029 0.081-0.043 0.145-0.043 0.074 0 0.13 0.021 0.168 0.064 0.039 0.043 0.058 0.097 0.058 0.163 0 0.063-0.018 0.118-0.054 0.162s-0.092 0.066-0.169 0.066c-0.036 0-0.067-3e-3 -0.093-0.011-0.047-0.014-0.082-0.04-0.105-0.078l-0.267 0.011 0.107 0.695h0.831v-0.21h-0.617l-0.054-0.275c0.046 0.025 0.081 0.042 0.107 0.049 0.043 0.014 0.095 0.021 0.157 0.021 0.125 0 0.234-0.035 0.327-0.105s0.14-0.172 0.14-0.305c0-0.117-0.045-0.22-0.135-0.312-0.089-0.091-0.223-0.137-0.402-0.137-0.144 0-0.261 0.032-0.354 0.097-0.092 0.064-0.143 0.155-0.154 0.273z" fill="none" stroke="#fff" stroke-width=".124"/><path d="m59.4625 750.7574s-5.649-5.824-11.014-7.421c-5.793 1.597-11.135 7.459-11.135 7.459l-0.049 18.383c5.373 4.517 16.201 4.45 22.198-0.089zm-23.462 19.302v-20.032s6.345-6.454 12.431-8.169c6.096 1.774 12.431 8.169 12.431 8.169v19.914c-6.074 5.392-18.161 5.392-24.862 0.118" fill="#110f0d"/><path d="m59.2818 750.7719s-6.379-5.965-10.922-7.236c-5.229 1.488-10.957 7.236-10.957 7.236v18.354c6.098 4.325 15.905 4.414 21.879-0.089zm-22.527 18.77v-19.031s6.265-6.175 11.721-7.672c5.543 1.519 11.721 7.672 11.721 7.672v18.918c-5.681 5.123-17.165 5.123-23.442 0.113" fill="#fac517"/></g></g></svg>
